<?xml version="1.0" standalone="no"?>
<!DOCTYPE svg PUBLIC "-//W3C//DTD SVG 20010904//EN"
 "http://www.w3.org/TR/2001/REC-SVG-20010904/DTD/svg10.dtd">
<svg version="1.0" xmlns="http://www.w3.org/2000/svg"
 width="1024.000000pt" height="1024.000000pt" viewBox="0 0 1024.000000 1024.000000"
 preserveAspectRatio="xMidYMid meet">

<g transform="translate(0.000000,1024.000000) scale(0.100000,-0.100000)"
fill="#000000" stroke="none">
<path d="M0 5120 l0 -5120 5120 0 5120 0 0 5120 0 5120 -5120 0 -5120 0 0
-5120z m6185 1527 c436 -152 773 -447 960 -841 153 -322 192 -640 119 -994
-62 -304 -259 -636 -499 -845 -209 -181 -438 -300 -710 -368 -152 -39 -117
-38 -1536 -42 l-1126 -4 13 41 c7 23 143 401 302 841 159 440 301 833 315 872
l26 73 -497 513 c-273 282 -523 538 -554 570 -49 48 -58 63 -58 93 0 39 12 68
43 102 l20 22 391 0 391 0 400 -414 c220 -227 473 -490 562 -583 l162 -170
-32 -84 c-17 -46 -122 -318 -233 -604 l-202 -520 661 -3 c729 -2 765 0 915 58
126 49 200 98 308 205 83 83 108 115 147 191 71 139 91 223 91 379 0 156 -20
240 -91 379 -39 76 -64 108 -147 191 -108 107 -182 156 -308 205 -135 52 -212
60 -607 61 l-356 0 -99 107 c-55 59 -179 190 -276 292 -97 102 -205 215 -240
253 l-64 68 850 -3 849 -3 110 -38z"/>
</g>
</svg>
