<?xml version="1.0" standalone="no"?>
<!DOCTYPE svg PUBLIC "-//W3C//DTD SVG 20010904//EN"
 "http://www.w3.org/TR/2001/REC-SVG-20010904/DTD/svg10.dtd">
<svg version="1.0" xmlns="http://www.w3.org/2000/svg"
 width="819.000000pt" height="819.000000pt" viewBox="0 0 819.000000 819.000000"
 preserveAspectRatio="xMidYMid meet">

<g transform="translate(0.000000,819.000000) scale(0.100000,-0.100000)"
fill="#000000" stroke="none">
<path d="M3795 8179 c-1933 -143 -3502 -1624 -3759 -3549 -175 -1304 308
-2646 1270 -3533 1124 -1035 2687 -1365 4126 -871 1645 565 2758 2126 2758
3869 0 1524 -852 2928 -2205 3631 -673 350 -1440 509 -2190 453z m1368 -2562
c606 -212 1016 -695 1102 -1297 114 -807 -432 -1570 -1262 -1761 -117 -27
-173 -28 -1504 -32 l-1126 -4 13 41 c10 32 300 838 618 1718 l25 68 -502 517
c-276 285 -526 542 -555 571 -43 44 -52 60 -52 88 0 39 12 68 43 102 l20 22
391 0 391 0 405 -419 c223 -230 476 -493 562 -583 l157 -165 -32 -84 c-17 -46
-122 -318 -233 -604 l-202 -520 662 -3 c728 -2 764 0 914 58 126 49 200 98
308 205 83 83 108 115 147 191 71 139 91 223 91 379 0 156 -20 240 -91 379
-39 76 -64 108 -147 191 -108 107 -182 156 -308 205 -135 52 -212 60 -607 61
l-356 0 -99 107 c-55 59 -179 190 -276 292 -97 102 -205 215 -240 253 l-64 67
850 -2 849 -3 108 -38z"/>
</g>
</svg>
